<?xml version="1.0" encoding="utf-8"?>
<!-- Generator: Adobe Illustrator 18.1.1, SVG Export Plug-In . SVG Version: 6.00 Build 0)  -->
<!DOCTYPE svg PUBLIC "-//W3C//DTD SVG 1.1//EN" "http://www.w3.org/Graphics/SVG/1.1/DTD/svg11.dtd">
<svg version="1.1" id="Layer_1" xmlns="http://www.w3.org/2000/svg" xmlns:xlink="http://www.w3.org/1999/xlink" x="0px" y="0px" height="35px"
	 viewBox="207.6 39.8 36 36" enable-background="new 207.6 39.8 36 36" xml:space="preserve">
<g>
	<g>
		<path fill="#FF341A" stroke="#FF341A" stroke-miterlimit="10" d="M213.6,69.7c-6.6-6.6-6.6-17.4,0-23.9s17.4-6.7,23.9,0
			c6.6,6.6,6.6,17.4,0,23.9C230.9,76.3,220.1,76.3,213.6,69.7z M236.7,46.7c-6.1-6.1-16.1-6.1-22.2,0s-6.1,16.1,0,22.2
			c6.1,6.1,16.1,6.1,22.2,0C242.8,62.8,242.8,52.8,236.7,46.7z"/>
	</g>
	<g>
		<g>
			<path fill="#FF341A" stroke="#FF341A" stroke-miterlimit="10" d="M217.1,58.3c-0.1-0.1-0.2-0.2-0.2-0.5c0-0.3,0.2-0.6,0.6-0.6
				h16.1c0.3,0,0.6,0.2,0.6,0.6s-0.2,0.6-0.6,0.6h-16.1C217.3,58.4,217.2,58.3,217.1,58.3z"/>
		</g>
		<g>
			<path fill="#FF341A" stroke="#FF341A" stroke-miterlimit="10" d="M225.2,49.3c0.1-0.1,0.2-0.2,0.5-0.2c0.4,0,0.6,0.2,0.6,0.6
				v16.1c0,0.4-0.2,0.6-0.6,0.6c-0.3,0-0.6-0.2-0.6-0.6v-16C224.9,49.5,225,49.4,225.2,49.3z"/>
		</g>
	</g>
</g>
</svg>
