<?xml version="1.0" encoding="utf-8"?>
<!-- Generator: Adobe Illustrator 18.1.1, SVG Export Plug-In . SVG Version: 6.00 Build 0)  -->
<!DOCTYPE svg PUBLIC "-//W3C//DTD SVG 1.1//EN" "http://www.w3.org/Graphics/SVG/1.1/DTD/svg11.dtd">
<svg version="1.1" id="Layer_1" xmlns="http://www.w3.org/2000/svg" xmlns:xlink="http://www.w3.org/1999/xlink" x="0px" y="0px" height="35px"
	 viewBox="40.7 39.8 36 36" enable-background="new 40.7 39.8 36 36" xml:space="preserve">
<g>
	<path fill="#FF341A" stroke="#FF341A" stroke-width="0.25" stroke-miterlimit="10" d="M62,74.8H51.2c-0.3,0-0.6-0.2-0.6-0.5
		l-3.9-19.1c0-0.2,0-0.3,0.1-0.6c0.1-0.1,0.4-0.2,0.5-0.2h18.6c0.2,0,0.3,0.1,0.5,0.2c0.1,0.1,0.1,0.3,0.1,0.6l-4,19.1
		C62.6,74.6,62.3,74.8,62,74.8z M51.7,73.5h9.7L65,55.7H48.2L51.7,73.5z"/>
	<g>
		<path fill="#FF341A" stroke="#FF341A" stroke-width="0.25" stroke-miterlimit="10" d="M51.2,74.8c-0.3,0-0.6-0.2-0.6-0.5
			l-3.9-19.1c-0.1-0.3,0.1-0.7,0.5-0.8c0.3-0.1,0.7,0.1,0.8,0.5l3.8,19.1c0.1,0.4-0.1,0.7-0.5,0.8C51.4,74.8,51.2,74.8,51.2,74.8z"
			/>
	</g>
	<g>
		<path fill="#FF341A" stroke="#FF341A" stroke-width="0.25" stroke-miterlimit="10" d="M54.9,74.8c-0.4,0-0.6-0.2-0.7-0.6L52.9,55
			c0-0.3,0.2-0.7,0.6-0.7c0.4,0,0.7,0.2,0.7,0.6l1.3,19.1C55.6,74.5,55.2,74.8,54.9,74.8L54.9,74.8z"/>
	</g>
	<g>
		<path fill="#FF341A" stroke="#FF341A" stroke-width="0.25" stroke-miterlimit="10" d="M58.4,74.8L58.4,74.8
			c-0.4,0-0.7-0.4-0.7-0.7l1.4-19c0-0.3,0.4-0.6,0.7-0.6c0.4,0,0.6,0.3,0.6,0.7l-1.3,19C59.1,74.5,58.7,74.8,58.4,74.8z"/>
	</g>
	<g>
		<path fill="#FF341A" stroke="#FF341A" stroke-width="0.25" stroke-miterlimit="10" d="M62,74.8h-0.1c-0.4-0.1-0.6-0.5-0.5-0.8
			l4-19.1c0.1-0.3,0.5-0.6,0.8-0.5s0.6,0.5,0.5,0.8l-4,19.1C62.6,74.6,62.3,74.8,62,74.8z"/>
	</g>
	<path fill="#FF341A" stroke="#FF341A" stroke-width="0.25" stroke-miterlimit="10" d="M71.9,53.6c-0.1,0-0.2,0-0.2-0.1l-20-9.6
		c-0.3-0.1-0.5-0.6-0.3-0.8c0.6-1.3,2-2.2,3.5-2.2c0.6,0,1.2,0.1,1.6,0.3L70.7,48c1.9,0.9,2.7,3.2,1.9,5.1c-0.1,0.1-0.2,0.2-0.4,0.3
		C72,53.6,72,53.6,71.9,53.6z M52.9,43.1l18.7,9c0.2-1.2-0.4-2.3-1.4-2.8l-14.2-6.8c-0.4-0.1-0.7-0.2-1.1-0.2
		C54,42.3,53.3,42.7,52.9,43.1z"/>
	<path fill="#FF341A" stroke="#FF341A" stroke-width="0.25" stroke-miterlimit="10" d="M61.9,48.3"/>
	<path fill="#FF341A" stroke="#FF341A" stroke-width="0.25" stroke-miterlimit="10" d="M66.3,47c-0.1,0-0.2,0-0.2-0.1
		c-0.4-0.1-0.5-0.6-0.4-0.8c0.6-1.3,0.1-2.8-1.2-3.4c-1.3-0.6-2.8-0.1-3.4,1.2c-0.1,0.3-0.6,0.5-0.8,0.3c-0.4-0.1-0.5-0.6-0.4-0.8
		c0.9-2,3.3-2.8,5.1-1.9c2,0.9,2.8,3.3,1.9,5.1C66.9,46.9,66.6,47,66.3,47z"/>
	<path fill="#FF341A" stroke="#FF341A" stroke-width="0.25" stroke-miterlimit="10" d="M68,60.6h-2.9c-0.4,0-0.7-0.3-0.7-0.7
		s0.3-0.7,0.7-0.7H68c0.4,0,0.7,0.4,0.7,0.7C68.7,60.3,68.4,60.6,68,60.6z"/>
	<path fill="#FF341A" stroke="#FF341A" stroke-width="0.25" stroke-miterlimit="10" d="M65.7,59.9"/>
	
		<path fill="none" stroke="#FF341A" stroke-width="0.25" stroke-linecap="round" stroke-linejoin="round" stroke-miterlimit="10" d="
		M48.2,59.9"/>
	<path fill="#FF341A" stroke="#FF341A" stroke-width="0.25" stroke-miterlimit="10" d="M48.2,60.6h-3c-0.4,0-0.7-0.3-0.7-0.7
		s0.3-0.7,0.7-0.7h3c0.3,0,0.7,0.4,0.7,0.7S48.6,60.6,48.2,60.6z"/>
</g>
<rect x="40.7" y="38.8" fill="none" width="36" height="36"/>
</svg>
