<?xml version="1.0" encoding="utf-8"?>
<!-- Generator: Adobe Illustrator 18.1.1, SVG Export Plug-In . SVG Version: 6.00 Build 0)  -->
<!DOCTYPE svg PUBLIC "-//W3C//DTD SVG 1.1//EN" "http://www.w3.org/Graphics/SVG/1.1/DTD/svg11.dtd">
<svg version="1.1" id="Layer_1" xmlns="http://www.w3.org/2000/svg" xmlns:xlink="http://www.w3.org/1999/xlink" x="0px" y="0px"
	 viewBox="-138 70.2 70 70" enable-background="new -138 70.2 70 70" xml:space="preserve">
<g>
	<path fill="#FF341A" d="M-109.9,91.2l4.4,17.7c0.2,0.7-0.3,1.5-1,1.6s-1.5-0.3-1.6-1l-1.9-7.7l-10.9,2.7l1.9,7.7
		c0.2,0.7-0.3,1.5-1,1.6c-0.7,0.2-1.5-0.3-1.6-1l-4.4-17.7c-0.2-0.7,0.3-1.5,1-1.6c0.7-0.2,1.5,0.3,1.6,1l1.9,7.7l10.9-2.7l-1.9-7.7
		c-0.2-0.7,0.3-1.5,1-1.6C-110.8,90-110.1,90.5-109.9,91.2z"/>
	<path fill="#FF341A" d="M-120.3,115c-1.1,0-2-0.8-2.2-1.8l-4.4-17.7c-0.2-0.6-0.1-1.2,0.2-1.7c0.3-0.5,0.8-0.9,1.4-1.1
		c0.2-0.1,0.4-0.1,0.6-0.1c1.1,0,2,0.7,2.3,1.8l1.7,6.7l9-2.2l-1.7-6.7c-0.3-1.2,0.4-2.5,1.6-2.8c0.2-0.1,0.5-0.1,0.7-0.1
		c1,0,1.9,0.7,2.2,1.7l4.4,17.8c0.2,0.6,0.1,1.2-0.2,1.7c-0.3,0.6-0.9,1-1.5,1.1c-0.2,0-0.4,0.1-0.6,0.1c-1.1,0-2-0.8-2.2-1.8
		l-1.6-6.6l-9,2.2l1.7,6.7c0.2,0.6,0.1,1.2-0.2,1.7c-0.3,0.6-0.9,1-1.5,1.1C-119.9,115-120.1,115-120.3,115z M-124.7,94.6
		C-124.7,94.6-124.7,94.6-124.7,94.6c-0.2,0-0.2,0.1-0.3,0.2c0,0.1-0.1,0.2,0,0.3l4.4,17.8c0,0.2,0.2,0.3,0.4,0.2
		c0.2,0,0.2-0.1,0.3-0.2c0,0,0.1-0.1,0-0.2l-2.1-8.6l12.8-3.2l2.1,8.6c0.1,0.3,0.2,0.3,0.4,0.2c0.2,0,0.2-0.1,0.3-0.2
		c0,0,0.1-0.1,0-0.2l-4.4-17.8c0-0.1-0.2-0.2-0.4-0.2l-0.1,0c-0.2,0-0.3,0.3-0.3,0.4l2.1,8.6l-12.8,3.2l-2.1-8.6
		C-124.4,94.7-124.6,94.6-124.7,94.6z"/>
</g>
<g>
	<path fill="#FF341A" d="M-94.5,96.4c0.7,0.2,1.1,1,1,1.6l-1.9,7.7l10.9,2.7l1.9-7.7c0.2-0.7,1-1.1,1.6-1c0.7,0.2,1.1,1,1,1.6
		l-4.4,17.7c-0.2,0.7-0.9,1.1-1.6,1s-1.2-0.9-1-1.6l1.9-7.7l-10.9-2.7l-1.9,7.7c-0.2,0.7-0.9,1.1-1.6,1c-0.7-0.2-1.2-0.9-1-1.6
		l4.4-17.7C-95.9,96.7-95.2,96.2-94.5,96.4z"/>
	<path fill="#FF341A" d="M-85.7,121.2c-0.2,0-0.4,0-0.6-0.1c-1.3-0.3-2-1.6-1.7-2.8l1.7-6.7l-9-2.2L-97,116c-0.3,1-1.2,1.7-2.2,1.7
		c-0.2,0-0.4,0-0.6-0.1c-1.3-0.3-2-1.6-1.7-2.8l4.4-17.7c0.3-1,1.2-1.7,2.3-1.7c0.2,0,0.4,0,0.6,0.1c0.6,0.2,1.1,0.6,1.4,1.1
		c0.3,0.5,0.4,1.2,0.2,1.8l-1.7,6.7l9,2.2l1.7-6.7c0.3-1.2,1.6-2,2.8-1.7l0.1,0c0.6,0.2,1.1,0.6,1.4,1.1c0.3,0.5,0.4,1.2,0.2,1.8
		l-4.4,17.7C-83.8,120.4-84.7,121.2-85.7,121.2z M-96.8,106.9l12.8,3.2l-2.1,8.6c-0.1,0.2,0.1,0.4,0.3,0.5c0.2,0,0.3-0.1,0.4-0.3
		l4.4-17.7c0-0.1,0-0.2,0-0.3c0-0.1-0.1-0.1-0.2-0.2c-0.2,0-0.4,0.1-0.5,0.3l-2.1,8.6l-12.8-3.2l2.1-8.6c0-0.1,0-0.2,0-0.3
		c-0.1-0.1-0.1-0.2-0.2-0.2c-0.2,0-0.4,0.1-0.4,0.2l-4.4,17.7c-0.1,0.2,0.1,0.4,0.3,0.5c0.2,0,0.3-0.1,0.4-0.3L-96.8,106.9z"/>
</g>
<g>
	<path fill="#FF341A" d="M-103,139.7c-19,0-34.5-15.5-34.5-34.5s15.5-34.5,34.5-34.5c19,0,34.5,15.5,34.5,34.5S-84,139.7-103,139.7z
		 M-103,75.3c-16.5,0-29.9,13.4-29.9,29.9s13.4,29.9,29.9,29.9s29.9-13.4,29.9-29.9S-86.6,75.3-103,75.3z"/>
</g>
</svg>
