<?xml version="1.0" encoding="utf-8"?>
<!-- Generator: Adobe Illustrator 18.1.1, SVG Export Plug-In . SVG Version: 6.00 Build 0)  -->
<!DOCTYPE svg PUBLIC "-//W3C//DTD SVG 1.1//EN" "http://www.w3.org/Graphics/SVG/1.1/DTD/svg11.dtd">
<svg version="1.1" id="Layer_1" xmlns="http://www.w3.org/2000/svg" xmlns:xlink="http://www.w3.org/1999/xlink" x="0px" y="0px" height="35px"
	 viewBox="-14.2 39.8 51.2 36" enable-background="new -14.2 39.8 51.2 36" xml:space="preserve">
<g>
	<g>
		<path fill="#FF341A" stroke="#FF341A" stroke-width="0.25" stroke-miterlimit="10" d="M11.2,72.8c-0.1,0-0.3-0.1-0.5-0.2l-6.1-6.1
			c-0.2-0.2-0.2-0.7,0-0.9l22.8-22.8c0.2-0.2,0.7-0.2,0.9,0l6.1,6.1c0.2,0.2,0.2,0.7,0,0.9L11.6,72.5C11.4,72.8,11.3,72.8,11.2,72.8
			z M6.1,66.1l5.1,5.1L33,49.4l-5.1-5.1L6.1,66.1z"/>
	</g>
	<g>
		<path fill="#FF341A" stroke="#FF341A" stroke-width="0.25" stroke-miterlimit="10" d="M33.8,49.8L33.8,49.8
			c-0.1,0-0.3-0.1-0.5-0.2l-6.1-6c-0.1-0.1-0.2-0.2-0.2-0.5c0-0.1,0.1-0.3,0.2-0.5c1.3-1.3,2.8-2,4.2-2c0.8,0,1.5,0.2,2.1,0.8
			l1.9,1.9c0.7,0.7,0.9,1.8,0.7,3c-0.2,1.2-0.9,2.3-1.9,3.3C34.2,49.8,34,49.8,33.8,49.8z M28.7,43.1l5,5c0.6-0.7,0.9-1.4,1.1-2.1
			c0.1-0.5,0.2-1.3-0.3-1.9l-1.9-1.9C32.2,42,31.7,42,31.4,42C30.7,42,29.6,42.4,28.7,43.1z"/>
	</g>
	<g>
		<path fill="#FF341A" stroke="#FF341A" stroke-width="0.25" stroke-miterlimit="10" d="M8.1,69.7c-0.1,0-0.3-0.1-0.5-0.2
			c-0.2-0.2-0.2-0.7,0-0.9l22.9-22.8c0.2-0.2,0.7-0.2,0.9,0c0.2,0.2,0.2,0.7,0,0.9L8.5,69.6C8.4,69.7,8.3,69.7,8.1,69.7z"/>
	</g>
	<g>
		<path fill="#FF341A" stroke="#FF341A" stroke-width="0.25" stroke-miterlimit="10" d="M3.2,74.8c-0.1,0-0.4-0.1-0.5-0.2
			c-0.1-0.1-0.2-0.4-0.1-0.6l2-8c0-0.2,0.2-0.4,0.5-0.5c0.2-0.1,0.5,0,0.6,0.1l6.1,6.1c0.1,0.1,0.2,0.3,0.1,0.6s-0.2,0.4-0.5,0.5
			l-7.9,2C3.3,74.8,3.2,74.8,3.2,74.8z M5.5,67.3l-1.4,5.8l5.8-1.4L5.5,67.3z"/>
	</g>
	<g>
		<path fill="#FF341A" stroke="#FF341A" stroke-width="0.25" stroke-miterlimit="10" d="M3.2,74.8h-16c-0.3,0-0.7-0.2-0.7-0.7
			s0.2-0.7,0.7-0.7h16c0.4,0,0.7,0.2,0.7,0.7S3.5,74.8,3.2,74.8z"/>
	</g>
	<g>
		<polygon fill="#FF341A" stroke="#FF341A" stroke-width="0.25" stroke-miterlimit="10" points="3.2,73.9 4,70.7 6.5,73.1 		"/>
	</g>
</g>
</svg>
