<?xml version="1.0" encoding="utf-8"?>
<!-- Generator: Adobe Illustrator 18.1.1, SVG Export Plug-In . SVG Version: 6.00 Build 0)  -->
<!DOCTYPE svg PUBLIC "-//W3C//DTD SVG 1.1//EN" "http://www.w3.org/Graphics/SVG/1.1/DTD/svg11.dtd">
<svg version="1.1" id="Layer_1" xmlns="http://www.w3.org/2000/svg" xmlns:xlink="http://www.w3.org/1999/xlink" x="0px" y="0px" height="35px"
	 viewBox="125.2 39.8 36 36" enable-background="new 125.2 39.8 36 36" xml:space="preserve">
<g>
	<g>
		<path fill="#86A9CA" stroke="#86A9CA" stroke-miterlimit="10" d="M143.2,74.7c-9.3,0-16.9-7.6-16.9-16.9s7.6-16.9,16.9-16.9
			c9.3,0,16.9,7.6,16.9,16.9S152.5,74.7,143.2,74.7z M143.2,42c-8.6,0-15.6,7-15.6,15.6s7,15.6,15.6,15.6c8.6,0,15.6-7,15.6-15.6
			S151.8,42,143.2,42z"/>
	</g>
	<g>
		<g>
			<path fill="#86A9CA" stroke="#86A9CA" stroke-miterlimit="10" d="M139.9,64.1c-0.1,0-0.4-0.1-0.5-0.2c-0.2-0.2-0.2-0.6,0-0.8
				l11.4-11.4c0.2-0.2,0.6-0.2,0.8,0c0.2,0.2,0.2,0.6,0,0.8l-11.4,11.4C140.3,63.9,140,64.1,139.9,64.1z"/>
		</g>
		<g>
			<path fill="#86A9CA" stroke="#86A9CA" stroke-miterlimit="10" d="M139.9,64.1c-0.1,0-0.4-0.1-0.5-0.2l-4.8-4.8
				c-0.2-0.2-0.2-0.6,0-0.8c0.2-0.2,0.6-0.2,0.8,0l4.8,4.8c0.2,0.2,0.2,0.6,0,0.8C140.3,63.9,140,64.1,139.9,64.1z"/>
		</g>
	</g>
</g>
</svg>
