<?xml version="1.0" encoding="utf-8"?>
<!-- Generator: Adobe Illustrator 18.1.1, SVG Export Plug-In . SVG Version: 6.00 Build 0)  -->
<!DOCTYPE svg PUBLIC "-//W3C//DTD SVG 1.1//EN" "http://www.w3.org/Graphics/SVG/1.1/DTD/svg11.dtd">
<svg version="1.1" id="Layer_1" xmlns="http://www.w3.org/2000/svg" xmlns:xlink="http://www.w3.org/1999/xlink" x="0px" y="0px" height="35px"
	 viewBox="126.1 79.6 36 36" enable-background="new 126.1 79.6 36 36" xml:space="preserve">
<g>
	<path fill="#112C32" stroke="#112C32" stroke-miterlimit="10" d="M144.1,114.6c-9.3,0-16.9-7.6-16.9-16.9s7.6-16.9,16.9-16.9
		S161,88.3,161,97.6S153.5,114.6,144.1,114.6z"/>
</g>
<path fill="none" stroke="#FFFFFF" stroke-width="1.5" stroke-linecap="round" stroke-linejoin="round" stroke-miterlimit="10" d="
	M144.1,94.5c0-3.6,2.5-6.4,7-3.6c0.9-0.1,1.8-0.5,2.5-1.2c0,0.9-0.5,1.9-1.4,2.4c0.7,0.2,1.4,0,1.9-0.5c-0.6,1.2-1.2,1.9-2,2.2
	c-2.4,12.7-9.3,13.4-17.6,10.5c2.5-0.1,4.8-0.4,6-1.9c-1.4-0.5-2.6-1.5-3.4-2.7c0,0,1.5-0.1,1.3-0.2c-3.3-1.8-3.3-4.1-3.3-4.1
	c0-0.1,1.8,0.5,1.8,0.5c-2-2.6-1.3-5.5-1.3-5.5C137.6,93.2,140.4,95,144.1,94.5z"/>
</svg>
